<svg xmlns="http://www.w3.org/2000/svg" xmlns:xlink="http://www.w3.org/1999/xlink" width="12" height="14" viewBox="0 0 12 14">
    <defs>
        <path id="a" d="M4.207 11l1.626-1.627L7.46 11l.707-.707L6.54 8.667 8.167 7.04l-.707-.707L5.833 7.96 4.207 6.333 3.5 7.04l1.627 1.627L3.5 10.293l.707.707zm6.46-9.333H10V.333H8.667v1.334H3.333V.333H2v1.334h-.667c-.74 0-1.326.6-1.326 1.333L0 12.333c0 .734.593 1.334 1.333 1.334h9.334c.733 0 1.333-.6 1.333-1.334V3c0-.733-.6-1.333-1.333-1.333zm0 10.666H1.333V5h9.334v7.333z"/>
    </defs>
    <g fill="none" fill-rule="evenodd">
        <mask id="b" fill="#fff">
            <use xlink:href="#a"/>
        </mask>
        <use fill="#000" xlink:href="#a"/>
        <g fill="#46515E" mask="url(#b)">
            <path d="M-2-1h16v16H-2z"/>
        </g>
    </g>
</svg>
